<svg width="196" height="14" viewBox="0 0 196 14" fill="none" xmlns="http://www.w3.org/2000/svg">
<path d="M187.409 7.37298C188.025 8.61578 189.339 9.39285 190.687 9.53551C191.365 9.60631 192.069 9.52351 192.719 9.25951C193.371 9.00378 193.951 8.53445 194.342 7.94751C195.132 6.77151 195.281 5.24911 194.797 3.92511C194.555 3.26365 194.14 2.64231 193.568 2.18605C193.027 1.76365 192.436 1.43031 191.819 1.16205C191.197 0.90218 190.551 0.70738 189.879 0.59698C189.541 0.544846 189.201 0.507378 188.853 0.504845C188.493 0.499645 188.179 0.537113 187.856 0.563646C186.559 0.643913 185.284 0.88338 184.017 1.14071C181.493 1.70898 179.06 2.56778 176.687 3.51418C174.312 4.46471 171.998 5.51578 169.675 6.51058C167.354 7.50111 165.01 8.38245 162.603 9.12511C157.802 10.6251 152.852 11.6439 147.857 12.1808C142.885 12.7287 137.796 12.7194 133.037 11.3287C131.856 10.973 130.701 10.5355 129.585 10.0167C128.473 9.48765 127.392 8.86471 126.307 8.21671C124.145 6.92351 121.929 5.52351 119.384 4.73965C118.125 4.34645 116.799 4.11311 115.452 4.11671C114.107 4.13551 112.736 4.40485 111.513 5.04231C110.903 5.35845 110.328 5.77151 109.843 6.29178C109.361 6.80631 108.973 7.45578 108.791 8.15951C108.421 9.55685 108.731 11.0928 109.655 12.2074C110.592 13.3344 112.078 13.8464 113.47 13.7074C114.866 13.5891 116.237 12.7038 116.748 11.3355C116.872 10.997 116.944 10.6276 116.925 10.2568C116.913 9.88605 116.797 9.50111 116.607 9.18498C116.232 8.55165 115.579 8.08085 114.807 8.01418C114.424 7.99431 114.027 8.08605 113.7 8.33138C113.379 8.57151 113.185 8.92098 113.091 9.27724C112.999 9.63298 112.992 10.0142 113.115 10.3756C113.235 10.7344 113.523 11.0688 113.895 11.2063L114.076 10.7448C113.62 10.561 113.473 9.93818 113.64 9.43298C113.717 9.18084 113.864 8.95271 114.063 8.82245C114.251 8.69018 114.508 8.63551 114.755 8.65951C115.255 8.71671 115.748 9.07151 115.995 9.53711C116.255 9.99285 116.244 10.5543 116.035 11.061C115.832 11.5663 115.443 12.009 114.977 12.3158C114.512 12.621 113.959 12.7943 113.393 12.8344C112.264 12.9158 111.089 12.4491 110.421 11.5834C109.743 10.7224 109.512 9.49431 109.817 8.44485C110.107 7.39538 110.993 6.56205 112.029 6.05431C113.075 5.53298 114.264 5.31671 115.452 5.32098C116.644 5.34071 117.844 5.56885 118.999 5.95431C121.313 6.70898 123.419 8.08605 125.597 9.39698C126.688 10.0584 127.805 10.7115 128.98 11.2808C130.164 11.8396 131.385 12.3106 132.632 12.6928C137.651 14.1902 142.928 14.2158 148.019 13.6876C153.117 13.1303 158.149 12.0439 163.032 10.4918C165.473 9.72245 167.88 8.79698 170.221 7.78245C172.564 6.77298 174.86 5.69805 177.179 4.70738C179.499 3.73191 181.855 2.85271 184.276 2.25951C185.489 1.99018 186.712 1.73551 187.951 1.63551C188.587 1.55165 189.127 1.53445 189.72 1.62511C190.304 1.70898 190.882 1.87151 191.436 2.09018C191.99 2.31058 192.521 2.59018 192.991 2.93711C193.424 3.26098 193.759 3.72098 193.97 4.24071C194.395 5.28338 194.305 6.56885 193.7 7.51938C193.115 8.50111 191.911 8.97565 190.747 8.88605C189.581 8.81151 188.416 8.18245 187.849 7.14751L187.409 7.37298Z" fill="#A4A4A4"/>
<path d="M189.351 7.19976C189.811 6.26896 190.794 5.6851 191.803 5.57576C192.311 5.52256 192.838 5.5835 193.324 5.78096C193.812 5.97163 194.248 6.32257 194.54 6.7611C195.135 7.63977 195.248 8.7799 194.887 9.77163C194.707 10.2679 194.398 10.7346 193.97 11.0742C193.566 11.393 193.123 11.644 192.66 11.845C192.196 12.0408 191.711 12.1862 191.208 12.2706C190.956 12.3107 190.7 12.3398 190.44 12.3408C190.171 12.3466 189.935 12.3168 189.692 12.2971C188.723 12.2383 187.767 12.0611 186.818 11.8706C184.928 11.4476 183.104 10.8091 181.326 10.1023C179.547 9.39296 177.812 8.6091 176.074 7.8679C174.332 7.12883 172.578 6.47057 170.774 5.91683C167.176 4.80123 163.47 4.04403 159.728 3.64657C156.006 3.2435 152.195 3.25696 148.634 4.3039C147.748 4.57163 146.884 4.9023 146.05 5.2903C145.218 5.68777 144.408 6.1559 143.596 6.64403C141.98 7.6143 140.322 8.66483 138.418 9.25443C137.474 9.55176 136.482 9.72777 135.474 9.72777C134.467 9.7143 133.439 9.51323 132.523 9.0383C132.066 8.80123 131.635 8.49443 131.27 8.10496C130.91 7.7195 130.619 7.23563 130.48 6.7075C130.202 5.66217 130.432 4.51163 131.123 3.67576C131.823 2.8315 132.934 2.44496 133.975 2.54763C135.023 2.6331 136.051 3.29443 136.434 4.3195C136.53 4.5731 136.583 4.84923 136.57 5.1263C136.56 5.4039 136.474 5.69297 136.332 5.92883C136.052 6.4039 135.563 6.75856 134.986 6.8091C134.699 6.82523 134.402 6.7559 134.156 6.57163C133.916 6.39296 133.77 6.13043 133.699 5.86483C133.63 5.5987 133.624 5.31323 133.715 5.04243C133.806 4.77416 134.02 4.52256 134.299 4.4195L134.435 4.76536C134.092 4.9023 133.983 5.36897 134.11 5.74657C134.168 5.93723 134.279 6.1075 134.427 6.20496C134.568 6.3023 134.76 6.34403 134.947 6.3263C135.32 6.28256 135.688 6.0143 135.872 5.66643C136.068 5.3263 136.059 4.90496 135.902 4.5263C135.75 4.14763 135.456 3.81683 135.108 3.58776C134.759 3.35963 134.344 3.23043 133.92 3.20123C133.076 3.14083 132.196 3.49297 131.698 4.14083C131.191 4.78777 131.019 5.7075 131.25 6.49296C131.467 7.2783 132.132 7.90123 132.908 8.2799C133.692 8.66896 134.583 8.82883 135.472 8.82523C136.364 8.8091 137.263 8.63563 138.127 8.34763C139.86 7.7783 141.434 6.7435 143.064 5.75963C143.879 5.26376 144.715 4.7731 145.595 4.34497C146.48 3.9263 147.394 3.57057 148.327 3.2835C152.084 2.1559 156.035 2.13043 159.847 2.51843C163.667 2.93043 167.436 3.73723 171.094 4.89443C172.922 5.46643 174.726 6.15696 176.479 6.9143C178.236 7.6679 179.956 8.4679 181.692 9.2075C183.431 9.93723 185.196 10.5903 187.011 11.0315C187.92 11.2331 188.836 11.4226 189.763 11.4944C190.242 11.557 190.643 11.569 191.088 11.5012C191.526 11.4372 191.958 11.3143 192.372 11.1502C192.787 10.9851 193.186 10.7742 193.536 10.5143C193.86 10.2716 194.11 9.9263 194.266 9.53563C194.583 8.7559 194.518 7.79296 194.062 7.08096C193.622 6.34763 192.719 5.99443 191.848 6.06217C190.974 6.1195 190.104 6.5919 189.682 7.3679L189.351 7.19976Z" fill="#A4A4A4"/>
<path d="M109.5 8.34392C100.367 9.47152 91.244 9.29965 82.1213 8.71059L75.28 8.32872C72.9987 8.16632 70.7187 7.97565 68.4374 7.89285C63.876 7.80632 59.3134 7.80112 54.7507 7.80485C50.188 7.80112 45.6254 7.87152 41.0614 7.95845C36.4974 8.14645 31.936 7.90219 27.368 8.89432C22.804 9.18499 18.244 8.69699 13.684 8.34912C9.12271 7.95845 4.56272 7.63299 5.53553e-05 7.67725L0.00806317 6.34392C4.5694 6.44232 9.13469 6.17405 13.6987 5.83819C18.2627 5.54485 22.828 5.11312 27.3894 5.45952C31.9454 6.50632 36.5094 6.31832 41.0707 6.56365C45.632 6.70379 50.1947 6.83032 54.756 6.88245C59.3187 6.94072 63.8813 6.99179 68.444 6.96099C70.7253 6.90486 73.008 6.74339 75.2907 6.60739L82.1361 6.31059C91.2641 5.83139 100.389 5.77152 109.508 7.01059L109.5 8.34392Z" fill="#A4A4A4"/>
</svg>
