<svg width="196" height="14" viewBox="0 0 196 14" fill="none" xmlns="http://www.w3.org/2000/svg">
<path d="M7.68354 7.37298C7.06754 8.61578 5.7542 9.39285 4.4062 9.53551C3.72753 9.60631 3.02357 9.52351 2.37423 9.25951C1.72223 9.00378 1.14218 8.53445 0.751511 7.94751C-0.0391553 6.77151 -0.188478 5.24911 0.295522 3.92511C0.538188 3.26365 0.952884 2.64231 1.52488 2.18605C2.06622 1.76365 2.6569 1.43031 3.27423 1.16205C3.89557 0.90218 4.54221 0.70738 5.21421 0.59698C5.55154 0.544846 5.89153 0.507378 6.23953 0.504845C6.59953 0.499645 6.9142 0.537113 7.23686 0.563646C8.5342 0.643913 9.80887 0.88338 11.0755 1.14071C13.5995 1.70898 16.0329 2.56778 18.4062 3.51418C20.7809 4.46471 23.0955 5.51578 25.4182 6.51058C27.7395 7.50111 30.0835 8.38245 32.4902 9.12511C37.2915 10.6251 42.2409 11.6439 47.2356 12.1808C52.2076 12.7287 57.2969 12.7194 62.0555 11.3287C63.2369 10.973 64.3916 10.5355 65.5076 10.0167C66.6196 9.48765 67.7009 8.86471 68.7862 8.21671C70.9475 6.92351 73.1635 5.52351 75.7089 4.73965C76.9675 4.34645 78.2942 4.11311 79.6409 4.11671C80.9862 4.13551 82.3569 4.40485 83.5796 5.04231C84.1902 5.35845 84.7649 5.77151 85.2502 6.29178C85.7315 6.80631 86.1196 7.45578 86.3022 8.15951C86.6716 9.55685 86.3622 11.0928 85.4382 12.2074C84.5009 13.3344 83.0155 13.8464 81.6235 13.7074C80.2275 13.5891 78.8555 12.7038 78.3449 11.3355C78.2209 10.997 78.1489 10.6276 78.1675 10.2568C78.1795 9.88605 78.2955 9.50111 78.4862 9.18498C78.8609 8.55165 79.5142 8.08085 80.2862 8.01418C80.6689 7.99431 81.0662 8.08605 81.3928 8.33138C81.7142 8.57151 81.9076 8.92098 82.0022 9.27724C82.0942 9.63298 82.1009 10.0142 81.9782 10.3756C81.8582 10.7344 81.5702 11.0688 81.1982 11.2063L81.0169 10.7448C81.4729 10.561 81.6195 9.93818 81.4529 9.43298C81.3755 9.18084 81.2289 8.95271 81.0302 8.82245C80.8422 8.69018 80.5849 8.63551 80.3382 8.65951C79.8382 8.71671 79.3449 9.07151 79.0982 9.53711C78.8382 9.99285 78.8489 10.5543 79.0582 11.061C79.2609 11.5663 79.6502 12.009 80.1156 12.3158C80.5809 12.621 81.1342 12.7943 81.6996 12.8344C82.8289 12.9158 84.0036 12.4491 84.6716 11.5834C85.3502 10.7224 85.5809 9.49431 85.2755 8.44485C84.9862 7.39538 84.0996 6.56205 83.0636 6.05431C82.0182 5.53298 80.8289 5.31671 79.6409 5.32098C78.4489 5.34071 77.2489 5.56885 76.0942 5.95431C73.7796 6.70898 71.6742 8.08605 69.4955 9.39698C68.4049 10.0584 67.2876 10.7115 66.1129 11.2808C64.9289 11.8396 63.7075 12.3106 62.4609 12.6928C57.4422 14.1902 52.1649 14.2158 47.0742 13.6876C41.9756 13.1303 36.9436 12.0439 32.0609 10.4918C29.6196 9.72245 27.2129 8.79698 24.8716 7.78245C22.5289 6.77298 20.2329 5.69805 17.9142 4.70738C15.5942 3.73191 13.2382 2.85271 10.8169 2.25951C9.60354 1.99018 8.38087 1.73551 7.1422 1.63551C6.5062 1.55165 5.9662 1.53445 5.37286 1.62511C4.78886 1.70898 4.21152 1.87151 3.65685 2.09018C3.10352 2.31058 2.57156 2.59018 2.10223 2.93711C1.66889 3.26098 1.33418 3.72098 1.12352 4.24071C0.698183 5.28338 0.787519 6.56885 1.39285 7.51938C1.97819 8.50111 3.18224 8.97565 4.34624 8.88605C5.51157 8.81151 6.6769 8.18245 7.24357 7.14751L7.68354 7.37298Z" fill="#A4A4A4"/>
<path d="M5.74193 7.19976C5.28193 6.26896 4.29924 5.6851 3.28991 5.57576C2.78191 5.52256 2.25529 5.5835 1.76862 5.78096C1.28062 5.97163 0.844604 6.32257 0.552604 6.7611C-0.0420624 7.63977 -0.155409 8.7799 0.205925 9.77163C0.385925 10.2679 0.695242 10.7346 1.12324 11.0742C1.52724 11.393 1.96995 11.644 2.43262 11.845C2.89662 12.0408 3.3819 12.1862 3.88457 12.2706C4.13657 12.3107 4.3926 12.3398 4.6526 12.3408C4.92194 12.3466 5.15792 12.3168 5.40059 12.2971C6.36992 12.2383 7.32593 12.0611 8.27526 11.8706C10.1646 11.4476 11.9886 10.8091 13.7673 10.1023C15.5459 9.39296 17.2806 8.6091 19.0193 7.8679C20.7606 7.12883 22.5153 6.47057 24.3193 5.91683C27.9166 4.80123 31.6232 4.04403 35.3646 3.64657C39.0872 3.2435 42.8979 3.25696 46.4592 4.3039C47.3446 4.57163 48.2086 4.9023 49.0433 5.2903C49.8753 5.68777 50.6846 6.1559 51.4966 6.64403C53.1126 7.6143 54.7713 8.66483 56.6753 9.25443C57.6193 9.55176 58.6113 9.72777 59.6193 9.72777C60.6259 9.7143 61.6539 9.51323 62.5699 9.0383C63.0273 8.80123 63.4579 8.49443 63.8232 8.10496C64.1832 7.7195 64.474 7.23563 64.6126 6.7075C64.8913 5.66217 64.6606 4.51163 63.9699 3.67576C63.2699 2.8315 62.1592 2.44496 61.1179 2.54763C60.0699 2.6331 59.0419 3.29443 58.6592 4.3195C58.5632 4.5731 58.5099 4.84923 58.5232 5.1263C58.5326 5.4039 58.6193 5.69297 58.7606 5.92883C59.0406 6.4039 59.53 6.75856 60.1073 6.8091C60.394 6.82523 60.6913 6.7559 60.9366 6.57163C61.1766 6.39296 61.3233 6.13043 61.3939 5.86483C61.4633 5.5987 61.4686 5.31323 61.3779 5.04243C61.2873 4.77416 61.0726 4.52256 60.7939 4.4195L60.6579 4.76536C61.0006 4.9023 61.1099 5.36897 60.9833 5.74657C60.9246 5.93723 60.8139 6.1075 60.6659 6.20496C60.5246 6.3023 60.3326 6.34403 60.146 6.3263C59.7726 6.28256 59.4046 6.0143 59.2206 5.66643C59.0246 5.3263 59.0339 4.90496 59.1913 4.5263C59.3433 4.14763 59.6366 3.81683 59.9846 3.58776C60.3339 3.35963 60.7486 3.23043 61.1726 3.20123C62.0166 3.14083 62.8966 3.49297 63.3952 4.14083C63.9019 4.78777 64.074 5.7075 63.8433 6.49296C63.626 7.2783 62.9606 7.90123 62.1846 8.2799C61.4006 8.66896 60.5099 8.82883 59.6206 8.82523C58.7286 8.8091 57.8299 8.63563 56.9659 8.34763C55.2326 7.7783 53.6592 6.7435 52.0286 5.75963C51.2139 5.26376 50.3779 4.7731 49.4979 4.34497C48.6126 3.9263 47.6993 3.57057 46.7659 3.2835C43.0086 2.1559 39.058 2.13043 35.246 2.51843C31.426 2.93043 27.6566 3.73723 23.9993 4.89443C22.1713 5.46643 20.3673 6.15696 18.6139 6.9143C16.8566 7.6679 15.1366 8.4679 13.4006 9.2075C11.6619 9.93723 9.89663 10.5903 8.08197 11.0315C7.17263 11.2331 6.25661 11.4226 5.32995 11.4944C4.85128 11.557 4.44996 11.569 4.00462 11.5012C3.56729 11.4372 3.13524 11.3143 2.72057 11.1502C2.30591 10.9851 1.90724 10.7742 1.55658 10.5143C1.23258 10.2716 0.983279 9.9263 0.827279 9.53563C0.509945 8.7559 0.57525 7.79296 1.03125 7.08096C1.47125 6.34763 2.37393 5.99443 3.2446 6.06217C4.11926 6.1195 4.9886 6.5919 5.41126 7.3679L5.74193 7.19976Z" fill="#A4A4A4"/>
<path d="M85.593 8.34392C94.7263 9.47152 103.849 9.29965 112.972 8.71059L119.813 8.32872C122.094 8.16632 124.374 7.97565 126.656 7.89285C131.217 7.80632 135.78 7.80112 140.342 7.80485C144.905 7.80112 149.468 7.87152 154.032 7.95845C158.596 8.14645 163.157 7.90219 167.725 8.89432C172.289 9.18499 176.849 8.69699 181.409 8.34912C185.97 7.95845 190.53 7.63299 195.093 7.67725L195.085 6.34392C190.524 6.44232 185.958 6.17405 181.394 5.83819C176.83 5.54485 172.265 5.11312 167.704 5.45952C163.148 6.50632 158.584 6.31832 154.022 6.56365C149.461 6.70379 144.898 6.83032 140.337 6.88245C135.774 6.94072 131.212 6.99179 126.649 6.96099C124.368 6.90486 122.085 6.74339 119.802 6.60739L112.957 6.31059C103.829 5.83139 94.7036 5.77152 85.585 7.01059L85.593 8.34392Z" fill="#A4A4A4"/>
</svg>
