<svg width="26" height="31" viewBox="0 0 26 31" fill="none" xmlns="http://www.w3.org/2000/svg">
<path d="M20.5833 1.08337C21.1813 1.08337 21.6666 1.56871 21.6666 2.16671V23.8334C21.6666 24.4314 21.1813 24.9167 20.5833 24.9167H5.41659C4.81859 24.9167 4.33325 24.4314 4.33325 23.8334V2.16671C4.33325 1.56871 4.81859 1.08337 5.41659 1.08337H20.5833ZM19.4999 13H6.49992V22.75H19.4999V13ZM10.8333 15.1667V19.5H8.66659V15.1667H10.8333ZM19.4999 3.25004H6.49992V10.8334H19.4999V3.25004ZM10.8333 5.41671V8.66671H8.66659V5.41671H10.8333Z" fill="#006EB5"/>
<ellipse cx="8.65385" cy="21.75" rx="8.65385" ry="8.75" fill="#006EB5" fill-opacity="0.31"/>
</svg>
