<svg width="31" height="26" viewBox="0 0 31 26" fill="none" xmlns="http://www.w3.org/2000/svg">
<ellipse cx="21.6538" cy="8.75" rx="8.65385" ry="8.75" fill="#006EB5" fill-opacity="0.31"/>
<path d="M3.25008 3.25H22.7501C23.0374 3.25 23.3129 3.36414 23.5161 3.5673C23.7193 3.77047 23.8334 4.04602 23.8334 4.33333V21.6667C23.8334 21.954 23.7193 22.2295 23.5161 22.4327C23.3129 22.6359 23.0374 22.75 22.7501 22.75H3.25008C2.96276 22.75 2.68721 22.6359 2.48405 22.4327C2.28088 22.2295 2.16675 21.954 2.16675 21.6667V4.33333C2.16675 4.04602 2.28088 3.77047 2.48405 3.5673C2.68721 3.36414 2.96276 3.25 3.25008 3.25ZM4.33341 5.41667V20.5833H21.6667V5.41667H4.33341ZM9.20841 15.1667H15.1667C15.3104 15.1667 15.4482 15.1096 15.5498 15.008C15.6513 14.9064 15.7084 14.7687 15.7084 14.625C15.7084 14.4813 15.6513 14.3436 15.5498 14.242C15.4482 14.1404 15.3104 14.0833 15.1667 14.0833H10.8334C10.1151 14.0833 9.42624 13.798 8.91833 13.2901C8.41042 12.7822 8.12508 12.0933 8.12508 11.375C8.12508 10.6567 8.41042 9.96783 8.91833 9.45992C9.42624 8.95201 10.1151 8.66667 10.8334 8.66667H11.9167V6.5H14.0834V8.66667H16.7917V10.8333H10.8334C10.6898 10.8333 10.552 10.8904 10.4504 10.992C10.3488 11.0936 10.2917 11.2313 10.2917 11.375C10.2917 11.5187 10.3488 11.6564 10.4504 11.758C10.552 11.8596 10.6898 11.9167 10.8334 11.9167H15.1667C15.885 11.9167 16.5739 12.202 17.0818 12.7099C17.5897 13.2178 17.8751 13.9067 17.8751 14.625C17.8751 15.3433 17.5897 16.0322 17.0818 16.5401C16.5739 17.048 15.885 17.3333 15.1667 17.3333H14.0834V19.5H11.9167V17.3333H9.20841V15.1667Z" fill="#006EB5"/>
</svg>
