<svg width="30" height="28" viewBox="0 0 30 28" fill="none" xmlns="http://www.w3.org/2000/svg">
<ellipse cx="8.65385" cy="8.75" rx="8.65385" ry="8.75" fill="#006EB5" fill-opacity="0.31"/>
<path d="M5.67285 6.75688L13.4132 3.40271L20.0479 6.75688L27.0175 3.73701C27.1016 3.70054 27.1934 3.68577 27.2846 3.69401C27.3758 3.70225 27.4635 3.73326 27.5399 3.78424C27.6163 3.83522 27.679 3.90459 27.7223 3.98611C27.7657 4.06763 27.7883 4.15876 27.7882 4.25131V22.4097L20.0479 25.7638L13.4132 22.4097L6.44357 25.4295C6.35944 25.466 6.26767 25.4808 6.17649 25.4725C6.08532 25.4643 5.99759 25.4333 5.92119 25.3823C5.84479 25.3313 5.78211 25.2619 5.73876 25.1804C5.69542 25.0989 5.67277 25.0078 5.67285 24.9152V6.75688ZM21.1536 22.8513L25.5767 20.9349V6.79377L21.1536 8.71012V22.8513ZM18.9421 22.7048V8.69782L14.519 6.46171V20.4687L18.9421 22.7048ZM12.3075 20.4564V6.31524L7.88439 8.23159V22.3728L12.3075 20.4564Z" fill="#006EB5"/>
</svg>
