<svg width="30" height="26" viewBox="0 0 30 26" fill="none" xmlns="http://www.w3.org/2000/svg">
<path d="M4.09825 3.06154L13 1.08337L21.9017 3.06154C22.1423 3.11502 22.3575 3.24892 22.5117 3.44115C22.6659 3.63337 22.75 3.87243 22.75 4.11887V14.9381C22.7499 16.0082 22.4857 17.0616 21.9807 18.0051C21.4758 18.9485 20.7457 19.7526 19.8553 20.3461L13 24.9167L6.14467 20.3461C5.25446 19.7527 4.5245 18.9487 4.01954 18.0055C3.51459 17.0623 3.25026 16.0091 3.25 14.9392V4.11887C3.25004 3.87243 3.33411 3.63337 3.48832 3.44115C3.64254 3.24892 3.85768 3.11502 4.09825 3.06154ZM5.41667 4.98771V14.9381C5.41668 15.6515 5.59279 16.3538 5.92937 16.9827C6.26594 17.6116 6.75258 18.1477 7.34608 18.5435L13 22.3135L18.6539 18.5435C19.2473 18.1478 19.7338 17.6119 20.0704 16.9832C20.4069 16.3544 20.5831 15.6524 20.5833 14.9392V4.98771L13 3.30421L5.41667 4.98771ZM13 11.9167C12.2817 11.9167 11.5928 11.6314 11.0849 11.1235C10.577 10.6155 10.2917 9.92667 10.2917 9.20837C10.2917 8.49008 10.577 7.8012 11.0849 7.29329C11.5928 6.78538 12.2817 6.50004 13 6.50004C13.7183 6.50004 14.4072 6.78538 14.9151 7.29329C15.423 7.8012 15.7083 8.49008 15.7083 9.20837C15.7083 9.92667 15.423 10.6155 14.9151 11.1235C14.4072 11.6314 13.7183 11.9167 13 11.9167ZM8.15425 17.3334C8.28557 16.14 8.85266 15.037 9.74684 14.2358C10.641 13.4346 11.7994 12.9916 13 12.9916C14.2006 12.9916 15.359 13.4346 16.2532 14.2358C17.1473 15.037 17.7144 16.14 17.8458 17.3334H8.15425Z" fill="#006EB5"/>
<ellipse cx="20.6538" cy="16.75" rx="8.65385" ry="8.75" fill="#006EB5" fill-opacity="0.31"/>
</svg>
