<svg width="21" height="21" viewBox="0 0 21 21" fill="none" xmlns="http://www.w3.org/2000/svg">
<path d="M2.625 2.625H18.375C18.6071 2.625 18.8296 2.71719 18.9937 2.88128C19.1578 3.04538 19.25 3.26794 19.25 3.5V17.5C19.25 17.7321 19.1578 17.9546 18.9937 18.1187C18.8296 18.2828 18.6071 18.375 18.375 18.375H2.625C2.39294 18.375 2.17038 18.2828 2.00628 18.1187C1.84219 17.9546 1.75 17.7321 1.75 17.5V3.5C1.75 3.26794 1.84219 3.04538 2.00628 2.88128C2.17038 2.71719 2.39294 2.625 2.625 2.625ZM10.5525 10.2226L4.942 5.45825L3.80888 6.79175L10.5639 12.5274L17.1972 6.78737L16.0528 5.4635L10.5525 10.2226Z" fill="#006EB5"/>
</svg>
