<svg width="21" height="21" viewBox="0 0 21 21" fill="none" xmlns="http://www.w3.org/2000/svg">
<path d="M16.0685 15.1936L10.5 20.7621L4.9315 15.1936C3.83017 14.0922 3.08016 12.689 2.77631 11.1614C2.47246 9.63382 2.62842 8.05043 3.22446 6.61147C3.8205 5.1725 4.82986 3.9426 6.1249 3.07729C7.41993 2.21198 8.94248 1.75012 10.5 1.75012C12.0575 1.75012 13.5801 2.21198 14.8751 3.07729C16.1701 3.9426 17.1795 5.1725 17.7755 6.61147C18.3716 8.05043 18.5275 9.63382 18.2237 11.1614C17.9198 12.689 17.1698 14.0922 16.0685 15.1936ZM10.5 11.3751C10.9641 11.3751 11.4093 11.1907 11.7374 10.8625C12.0656 10.5343 12.25 10.0892 12.25 9.62505C12.25 9.16092 12.0656 8.71581 11.7374 8.38762C11.4093 8.05943 10.9641 7.87505 10.5 7.87505C10.0359 7.87505 9.59076 8.05943 9.26257 8.38762C8.93438 8.71581 8.75 9.16092 8.75 9.62505C8.75 10.0892 8.93438 10.5343 9.26257 10.8625C9.59076 11.1907 10.0359 11.3751 10.5 11.3751Z" fill="#006EB5"/>
</svg>
